<svg xmlns="http://www.w3.org/2000/svg" width="32" height="32" viewBox="0 0 32 32" version="1.1">
	<path d="M 4.437 2.303 C 4.162 3.019, 4.064 9.432, 4.219 16.553 L 4.500 29.500 16 29.500 L 27.500 29.500 27.783 18.206 L 28.066 6.912 25.110 3.956 C 22.293 1.139, 21.749 1, 13.546 1 C 7.395 1, 4.794 1.372, 4.437 2.303 M 5.667 2.667 C 5.300 3.033, 5 9.108, 5 16.167 L 5 29 16 29 L 27 29 27 18.089 L 27 7.178 23.923 4.589 C 21.232 2.324, 19.938 2, 13.590 2 C 9.599 2, 6.033 2.300, 5.667 2.667 M 14.494 7.009 C 13.711 8.277, 14.903 12.240, 16.385 13.292 C 17.118 13.812, 16.986 14.010, 16 13.869 C 13.760 13.548, 9 16.126, 9 17.661 C 9 19.661, 11.072 19.281, 13.720 16.794 C 15.730 14.905, 16.480 14.743, 18.930 15.667 C 20.528 16.271, 22.385 16.380, 23.137 15.915 C 24.894 14.829, 23.315 13.278, 20 12.835 C 18.342 12.613, 17.452 11.826, 17.356 10.500 C 17.277 9.400, 17.165 7.938, 17.106 7.250 C 16.979 5.749, 15.365 5.600, 14.494 7.009 M 15.079 8.583 C 15.127 9.748, 15.364 9.985, 15.683 9.188 C 15.972 8.466, 15.936 7.603, 15.604 7.271 C 15.272 6.939, 15.036 7.529, 15.079 8.583 M 19.813 14.683 C 20.534 14.972, 21.397 14.936, 21.729 14.604 C 22.061 14.272, 21.471 14.036, 20.417 14.079 C 19.252 14.127, 19.015 14.364, 19.813 14.683 M 10.507 16.989 C 10.157 17.555, 10.558 17.723, 11.448 17.382 C 13.180 16.717, 13.497 16, 12.059 16 C 11.541 16, 10.843 16.445, 10.507 16.989 M 11 23.469 C 11 25.252, 11.416 25.777, 12.500 25.362 C 13.325 25.045, 14 23.934, 14 22.893 C 14 21.852, 13.325 21, 12.500 21 C 11.572 21, 11 21.941, 11 23.469 M 15 23.500 C 15 24.875, 15.338 26, 15.750 26 C 16.163 26, 16.500 24.875, 16.500 23.500 C 16.500 22.125, 16.163 21, 15.750 21 C 15.338 21, 15 22.125, 15 23.500 M 17.336 22.567 C 17.005 23.429, 17.244 24.644, 17.867 25.267 C 18.945 26.345, 19.242 25.806, 18.915 23.362 C 18.868 23.011, 19.430 22.343, 20.165 21.877 C 21.183 21.231, 21.078 21.027, 19.719 21.015 C 18.739 21.007, 17.667 21.705, 17.336 22.567" stroke="none" fill="black" fill-rule="evenodd"/>
</svg>