<svg xmlns="http://www.w3.org/2000/svg" width="512" height="512" viewBox="0 0 512 512" version="1.1">
	<path d="M 155.500 1.480 C 142.206 4.406, 132.143 9.976, 122.500 19.743 C 115.348 26.987, 110.814 34.215, 107.179 44.165 L 104.500 51.500 104.222 134.750 L 103.945 218 66.222 218.002 C 24.152 218.003, 23.846 218.048, 19.270 224.898 L 17 228.296 17.002 296.398 C 17.003 371.619, 16.756 368.610, 23.322 373.429 C 26.045 375.427, 27.508 375.510, 65.022 375.783 L 103.900 376.067 104.200 418.283 C 104.493 459.505, 104.555 460.653, 106.818 467 C 113.850 486.724, 128.931 501.806, 148.500 508.687 L 156.500 511.500 296.217 511.770 C 452.539 512.073, 443.522 512.455, 459 504.876 C 475.751 496.674, 489.681 478.758, 493.501 460.500 C 494.749 454.534, 494.968 431.262, 494.983 303.002 L 495 152.505 418.752 76.252 L 342.505 0 252.002 0.079 C 180.944 0.142, 160.211 0.443, 155.500 1.480 M 88.357 244.928 C 82.935 247.277, 83 246.646, 83 297.088 C 83 342.761, 83.043 343.785, 85.073 346.365 C 87.828 349.869, 93.671 350.043, 96.797 346.716 C 98.755 344.631, 98.967 343.172, 99.221 329.966 L 99.500 315.500 113.500 314.983 C 127.080 314.482, 127.690 314.364, 133.826 311.053 C 155.513 299.353, 159.046 269.915, 140.739 253.455 C 132.711 246.237, 127.367 244.774, 107.500 244.357 C 98.150 244.160, 89.536 244.417, 88.357 244.928 M 177.357 244.928 C 171.935 247.277, 172 246.646, 172 297.088 C 172 342.761, 172.043 343.785, 174.073 346.365 L 176.145 349 195.035 349 C 211.779 349, 214.563 348.761, 219.540 346.899 C 227.351 343.977, 235.881 335.505, 239.074 327.500 C 241.369 321.744, 241.466 320.502, 241.466 297 C 241.466 273.485, 241.370 272.259, 239.071 266.507 C 235.791 258.303, 227.581 250.132, 219.493 247.020 C 214.269 245.010, 211.320 244.668, 196.500 244.357 C 187.150 244.160, 178.536 244.417, 177.357 244.928 M 267.384 245.411 C 265.382 246.298, 263.863 247.953, 263.134 250.044 C 261.575 254.518, 261.548 339.406, 263.105 343.872 C 265.075 349.523, 272.158 350.932, 276.545 346.545 L 279 344.091 279 322.045 L 279 300 299.826 300 C 320.302 300, 320.688 299.961, 322.826 297.686 C 325.997 294.310, 325.777 288.756, 322.365 286.073 C 319.895 284.130, 318.454 284, 299.365 284 L 279 284 279 272.500 L 279 261 302.050 261 C 320.323 261, 325.686 260.697, 327.928 259.537 C 332.717 257.061, 333.434 251.779, 329.588 247.306 L 327.176 244.500 298.838 244.266 C 276.523 244.082, 269.838 244.325, 267.384 245.411 M 99.228 279.750 L 99.500 298.500 109 298.811 C 123.456 299.285, 130.108 296.540, 134.003 288.494 C 136.391 283.561, 136.568 277.295, 134.462 272.254 C 130.769 263.417, 125.667 261.052, 110.228 261.022 L 98.956 261 99.228 279.750 M 188 297.082 L 188 333.163 200.328 332.832 C 211.744 332.525, 212.955 332.301, 216.707 329.816 C 219.143 328.202, 221.603 325.385, 222.879 322.750 C 224.836 318.707, 225 316.729, 225 297.152 C 225 280.322, 224.682 275.175, 223.462 272.254 C 219.771 263.421, 214.665 261.052, 199.250 261.022 L 188 261 188 297.082" stroke="none" fill="black" fill-rule="evenodd"/>
</svg>