<svg xmlns="http://www.w3.org/2000/svg" width="297" height="305" viewBox="0 0 297 305" version="1.1">
	<path d="M 19 139.700 C 18.175 140.005, 16.488 141.176, 15.250 142.302 L 13 144.349 13 194.240 C 13 226.546, 13.363 244.810, 14.030 246.055 C 16.770 251.176, 12.674 251, 129.416 251 C 251.061 251, 243.924 251.425, 246.073 244.056 C 246.744 241.752, 247.002 223.536, 246.805 192.307 L 246.500 144.113 244.024 141.807 L 241.547 139.500 131.024 139.322 C 70.236 139.224, 19.825 139.394, 19 139.700 M 56.571 172.571 C 54.220 174.922, 54.220 219.078, 56.571 221.429 C 60.966 225.823, 66 221.152, 66 212.682 L 66 208.233 75.750 207.794 C 86.808 207.296, 90.797 205.575, 94.862 199.550 C 98.290 194.470, 98.180 184.382, 94.640 179.033 C 90.407 172.636, 85.543 171, 70.756 171 C 60.623 171, 57.834 171.309, 56.571 172.571 M 110.750 172.162 L 108 173.167 108 197.048 C 108 220.424, 108.045 220.954, 110.139 222.074 C 111.568 222.839, 116.799 223.077, 125.889 222.792 C 137.525 222.427, 140.098 222.043, 143.619 220.150 C 152.589 215.326, 157 207.586, 157 196.672 C 157 190.260, 156.620 188.778, 153.750 183.988 C 149.508 176.910, 143.829 173.113, 135.731 171.942 C 127.621 170.768, 114.243 170.887, 110.750 172.162 M 172.500 171.700 C 168.308 172.682, 167.999 174.383, 168.014 196.441 C 168.021 208.024, 168.292 218.487, 168.615 219.693 C 169.434 222.746, 174.473 223.787, 177.067 221.439 C 178.700 219.961, 179 218.318, 179 210.845 L 179 202 190.300 202 C 201.837 202, 204 201.361, 204 197.955 C 204 194.091, 200.845 193, 189.671 193 L 179 193 179 187 L 179 181 190.777 181 C 203.719 181, 207.398 179.779, 206.807 175.678 C 206.266 171.928, 202.521 171.022, 188 171.131 C 180.575 171.186, 173.600 171.443, 172.500 171.700 M 66 189 L 66 198 74.500 198 C 81.630 198, 83.318 197.682, 84.975 196.025 C 87.687 193.313, 88.459 189.523, 87.012 186.029 C 85.079 181.363, 82.032 180, 73.535 180 L 66 180 66 189 M 118 197 L 118 214 126.441 214 C 131.084 214, 135.160 213.550, 135.500 213 C 135.840 212.450, 136.868 212, 137.784 212 C 140.452 212, 145.788 205.217, 146.517 200.898 C 148.740 187.742, 140.722 180, 124.874 180 L 118 180 118 197" stroke="none" fill="black" fill-rule="evenodd"/>
</svg>