<?xml version="1.0" standalone="no"?>
<!DOCTYPE svg PUBLIC "-//W3C//DTD SVG 20010904//EN"
 "http://www.w3.org/TR/2001/REC-SVG-20010904/DTD/svg10.dtd">
<svg version="1.0" xmlns="http://www.w3.org/2000/svg"
 width="297.000000pt" height="305.000000pt" viewBox="0 0 297.000000 305.000000"
 preserveAspectRatio="xMidYMid meet">

<g transform="translate(0.000000,305.000000) scale(0.100000,-0.100000)"
fill="#000000" stroke="none">
<path d="M201 1653 c-13 -3 -34 -16 -47 -30 l-24 -26 0 -498 c0 -552 -4 -516
67 -545 48 -20 2158 -21 2206 -1 65 28 62 0 62 548 l0 499 -28 27 -27 28
-1093 1 c-600 1 -1103 -1 -1116 -3z m673 -327 c79 -33 120 -127 97 -224 -23
-92 -90 -132 -226 -132 l-85 0 0 -53 c0 -61 -20 -97 -55 -97 -53 0 -55 12 -55
265 0 212 2 235 18 244 27 16 266 14 306 -3z m567 -19 c93 -55 132 -123 132
-232 0 -106 -42 -178 -133 -226 -40 -21 -61 -24 -192 -27 l-146 -4 -17 25
c-14 22 -16 55 -13 247 3 208 4 223 23 237 16 12 46 14 160 11 130 -4 143 -6
186 -31z m607 17 c28 -19 28 -45 1 -70 -18 -16 -40 -20 -140 -22 l-119 -4 0
-54 0 -54 109 0 c119 0 141 -9 141 -55 0 -33 -43 -45 -156 -45 l-94 0 0 -82
c0 -89 -14 -118 -56 -118 -51 0 -54 13 -54 258 0 125 4 232 8 238 13 20 35 22
187 23 121 1 155 -2 173 -15z"/>
<path d="M660 1160 l0 -90 76 0 c86 0 108 8 129 50 22 42 19 55 -20 95 -34 34
-38 35 -110 35 l-75 0 0 -90z"/>
<path d="M1180 1075 l0 -165 69 0 c69 0 142 19 164 42 69 73 70 182 2 254 -20
21 -80 34 -156 34 l-79 0 0 -165z"/>
</g>
</svg>
